<svg xmlns="http://www.w3.org/2000/svg" xmlns:xlink="http://www.w3.org/1999/xlink" width="930" height="540" viewBox="0 0 930 540">
  <defs>
    <linearGradient id="linear-gradient" x1="1.186" y1="-0.354" x2="-0.167" y2="1.256" gradientUnits="objectBoundingBox">
      <stop offset="0" stop-color="#fc00ff"/>
      <stop offset="1" stop-color="#00dbde"/>
    </linearGradient>
    <clipPath id="clip-banner-shape">
      <rect width="930" height="540"/>
    </clipPath>
  </defs>
  <g id="banner-shape" clip-path="url(#clip-banner-shape)">
    <rect id="Rectangle_1" data-name="Rectangle 1" width="930" height="830" fill="none"/>
    <g id="Group_203" data-name="Group 203" transform="translate(-5038.644 -12977.917) rotate(74.991)" opacity="0.31">
      <g id="Rectangle_81" data-name="Rectangle 81" transform="translate(13166.184 -2295.816)" stroke="#707070" stroke-width="1" opacity="0" fill="url(#linear-gradient)">
        <rect width="1316" height="1316" stroke="none"/>
        <rect x="0.5" y="0.5" width="1315" height="1315" fill="none"/>
      </g>
      <g id="Group_198" data-name="Group 198" transform="translate(13255.139 -2206.861)">
        <path id="Ellipse_13" data-name="Ellipse 13" d="M294.644,2.249a297.028,297.028,0,0,0-29.883,1.508,291.954,291.954,0,0,0-261,260.988,296.808,296.808,0,0,0,0,59.8A291.954,291.954,0,0,0,264.745,585.528a296.793,296.793,0,0,0,59.8,0A291.954,291.954,0,0,0,585.528,324.542a296.8,296.8,0,0,0,0-59.8A291.954,291.954,0,0,0,324.542,3.759a297.13,297.13,0,0,0-29.9-1.51m0-2.249C457.371,0,589.287,131.916,589.287,294.644S457.371,589.287,294.644,589.287,0,457.371,0,294.644,131.916,0,294.644,0Z" transform="translate(274.401 274.401)" fill="url(#linear-gradient)"/>
        <path id="Ellipse_14" data-name="Ellipse 14" d="M320.884,2.249a323.732,323.732,0,0,0-32.571,1.644,319.432,319.432,0,0,0-31.65,4.829c-10.265,2.1-20.538,4.742-30.535,7.851-9.885,3.074-19.734,6.679-29.273,10.714a319.572,319.572,0,0,0-169.57,169.57c-4.035,9.54-7.64,19.389-10.714,29.273-3.109,10-5.751,20.27-7.851,30.535A319.423,319.423,0,0,0,3.894,288.3a323.451,323.451,0,0,0,0,65.163A319.415,319.415,0,0,0,8.723,385.1c2.1,10.265,4.742,20.538,7.851,30.535,3.074,9.885,6.679,19.734,10.714,29.273a319.572,319.572,0,0,0,169.57,169.57c9.54,4.035,19.389,7.64,29.273,10.714,10,3.109,20.27,5.751,30.535,7.851a319.384,319.384,0,0,0,31.637,4.828,323.439,323.439,0,0,0,65.163,0,319.382,319.382,0,0,0,31.637-4.828c10.265-2.1,20.538-4.742,30.535-7.851,9.885-3.074,19.734-6.679,29.273-10.714A319.571,319.571,0,0,0,614.48,444.91c4.035-9.54,7.64-19.389,10.714-29.273,3.109-10,5.751-20.27,7.851-30.535a319.385,319.385,0,0,0,4.828-31.637,323.439,323.439,0,0,0,0-65.163,319.383,319.383,0,0,0-4.828-31.637c-2.1-10.265-4.742-20.538-7.851-30.535-3.074-9.885-6.679-19.734-10.714-29.273A319.572,319.572,0,0,0,444.91,27.288c-9.54-4.035-19.389-7.64-29.273-10.714-10-3.109-20.27-5.751-30.535-7.851a319.428,319.428,0,0,0-31.637-4.828A323.8,323.8,0,0,0,320.884,2.25m0-2.249C498.1,0,641.768,143.665,641.768,320.884S498.1,641.768,320.884,641.768,0,498.1,0,320.884,143.665,0,320.884,0Z" transform="translate(248.16 248.16)" fill="url(#linear-gradient)"/>
        <path id="Ellipse_15" data-name="Ellipse 15" d="M347.125,2.249a350.334,350.334,0,0,0-35.244,1.779,345.731,345.731,0,0,0-34.264,5.228c-11.11,2.273-22.23,5.133-33.049,8.5-10.7,3.328-21.359,7.229-31.684,11.6-10.23,4.327-20.373,9.213-30.146,14.522-9.7,5.272-19.271,11.084-28.435,17.275A346.792,346.792,0,0,0,61.147,154.3c-6.191,9.164-12,18.731-17.275,28.435-5.309,9.773-10.2,19.916-14.522,30.146-4.367,10.325-8.269,20.986-11.6,31.684-3.365,10.82-6.224,21.939-8.5,33.049A345.742,345.742,0,0,0,4.03,311.86a350.082,350.082,0,0,0,0,70.528,345.729,345.729,0,0,0,5.226,34.243c2.273,11.11,5.133,22.23,8.5,33.049,3.328,10.7,7.229,21.359,11.6,31.684,4.327,10.23,9.213,20.373,14.522,30.146,5.272,9.7,11.084,19.271,17.275,28.435A346.8,346.8,0,0,0,154.3,633.1c9.164,6.191,18.731,12,28.435,17.275,9.773,5.309,19.916,10.2,30.146,14.522,10.325,4.367,20.986,8.269,31.684,11.6,10.82,3.365,21.939,6.224,33.049,8.5a345.733,345.733,0,0,0,34.243,5.226,350.073,350.073,0,0,0,70.528,0A345.75,345.75,0,0,0,416.628,685c11.11-2.273,22.23-5.133,33.049-8.5,10.7-3.328,21.359-7.229,31.684-11.6,10.23-4.327,20.373-9.213,30.146-14.522,9.7-5.271,19.271-11.084,28.435-17.275A346.794,346.794,0,0,0,633.1,539.946c6.191-9.164,12-18.731,17.275-28.435,5.309-9.773,10.2-19.916,14.522-30.146,4.367-10.325,8.269-20.985,11.6-31.684,3.365-10.82,6.224-21.939,8.5-33.049a345.731,345.731,0,0,0,5.226-34.243,350.074,350.074,0,0,0,0-70.528A345.748,345.748,0,0,0,685,277.618c-2.273-11.11-5.133-22.23-8.5-33.049-3.328-10.7-7.229-21.359-11.6-31.684-4.327-10.23-9.213-20.373-14.522-30.146-5.271-9.7-11.084-19.271-17.275-28.435a346.793,346.793,0,0,0-93.156-93.156c-9.164-6.191-18.731-12-28.435-17.275-9.773-5.309-19.916-10.2-30.146-14.522-10.325-4.367-20.985-8.269-31.684-11.6-10.82-3.365-21.939-6.224-33.049-8.5A345.752,345.752,0,0,0,382.389,4.03a350.447,350.447,0,0,0-35.264-1.781m0-2.249C538.836,0,694.249,155.413,694.249,347.125S538.836,694.249,347.125,694.249,0,538.836,0,347.125,155.413,0,347.125,0Z" transform="translate(221.92 221.92)" fill="url(#linear-gradient)"/>
        <path id="Ellipse_16" data-name="Ellipse 16" d="M374.865,2.249a378.519,378.519,0,0,0-38.078,1.922,373.578,373.578,0,0,0-37.022,5.648c-12,2.456-24.018,5.545-35.708,9.181-11.559,3.6-23.077,7.811-34.233,12.529-11.053,4.675-22.012,9.954-32.571,15.69-10.485,5.7-20.821,11.975-30.722,18.664-9.853,6.657-19.5,13.874-28.686,21.451-9.159,7.558-18.062,15.65-26.462,24.05s-16.492,17.3-24.05,26.462c-7.577,9.181-14.794,18.832-21.451,28.686-6.689,9.9-12.969,20.238-18.664,30.722-5.736,10.56-11.015,21.518-15.69,32.571C26.812,240.983,22.6,252.5,19,264.059c-3.636,11.69-6.725,23.7-9.181,35.708a373.567,373.567,0,0,0-5.646,37,378.231,378.231,0,0,0,0,76.2,373.563,373.563,0,0,0,5.646,37c2.456,12,5.545,24.018,9.181,35.708,3.6,11.559,7.811,23.077,12.529,34.233,4.675,11.053,9.954,22.012,15.69,32.571,5.7,10.485,11.975,20.821,18.664,30.722,6.657,9.853,13.874,19.5,21.451,28.686,7.558,9.159,15.65,18.062,24.05,26.462s17.3,16.492,26.462,24.05c9.181,7.577,18.832,14.794,28.686,21.451,9.9,6.689,20.238,12.969,30.722,18.664,10.56,5.736,21.518,11.015,32.571,15.69,11.156,4.719,22.674,8.934,34.233,12.529,11.69,3.636,23.7,6.725,35.708,9.181a373.577,373.577,0,0,0,37,5.646,378.257,378.257,0,0,0,76.2,0,373.591,373.591,0,0,0,37-5.646c12-2.456,24.018-5.545,35.708-9.181,11.559-3.6,23.077-7.811,34.233-12.529,11.053-4.675,22.012-9.954,32.571-15.69,10.485-5.7,20.821-11.975,30.722-18.664,9.853-6.657,19.5-13.874,28.686-21.451,9.159-7.558,18.062-15.65,26.462-24.05s16.492-17.3,24.05-26.462c7.577-9.181,14.794-18.832,21.451-28.686,6.689-9.9,12.969-20.237,18.664-30.722,5.736-10.56,11.015-21.518,15.69-32.571,4.719-11.156,8.934-22.673,12.529-34.233,3.636-11.69,6.725-23.7,9.181-35.708a373.577,373.577,0,0,0,5.646-37,378.257,378.257,0,0,0,0-76.2,373.575,373.575,0,0,0-5.646-37c-2.456-12-5.545-24.018-9.181-35.708-3.6-11.559-7.811-23.077-12.529-34.233-4.675-11.053-9.954-22.012-15.69-32.571-5.7-10.485-11.975-20.821-18.664-30.722-6.657-9.853-13.874-19.5-21.451-28.686-7.558-9.159-15.65-18.062-24.05-26.462s-17.3-16.492-26.462-24.05c-9.186-7.576-18.837-14.793-28.686-21.45-9.9-6.689-20.237-12.969-30.722-18.664-10.56-5.736-21.518-11.015-32.571-15.69C508.747,26.812,497.229,22.6,485.67,19c-11.69-3.636-23.7-6.725-35.708-9.181a373.546,373.546,0,0,0-37-5.646,378.626,378.626,0,0,0-38.1-1.924m0-2.249C581.9,0,749.729,167.833,749.729,374.865S581.9,749.729,374.865,749.729,0,581.9,0,374.865,167.833,0,374.865,0Z" transform="translate(194.18 194.18)" fill="url(#linear-gradient)"/>
        <path id="Ellipse_17" data-name="Ellipse 17" d="M403.354,2.249a407.464,407.464,0,0,0-40.991,2.069A402.1,402.1,0,0,0,322.515,10.4c-12.922,2.644-25.854,5.969-38.438,9.883-12.443,3.87-24.841,8.408-36.85,13.487-11.9,5.032-23.7,10.715-35.061,16.89-11.287,6.13-22.414,12.89-33.072,20.09-10.607,7.166-21,14.935-30.879,23.091-9.859,8.136-19.443,16.847-28.485,25.889s-17.753,18.626-25.889,28.485c-8.156,9.883-15.925,20.272-23.091,30.879-7.2,10.658-13.96,21.785-20.091,33.071-6.175,11.367-11.858,23.163-16.89,35.061-5.079,12.009-9.617,24.407-13.487,36.85-3.914,12.584-7.239,25.516-9.883,38.438A402.08,402.08,0,0,0,4.32,362.341a407.163,407.163,0,0,0,0,82.027,402.1,402.1,0,0,0,6.08,39.825c2.644,12.922,5.969,25.854,9.883,38.438,3.87,12.443,8.408,24.841,13.487,36.85,5.032,11.9,10.715,23.694,16.89,35.061,6.131,11.286,12.891,22.413,20.091,33.071,7.166,10.607,14.935,21,23.091,30.879,8.136,9.859,16.847,19.443,25.889,28.485s18.626,17.753,28.485,25.889c9.883,8.156,20.272,15.925,30.879,23.091,10.658,7.2,21.785,13.96,33.071,20.091,11.367,6.175,23.163,11.857,35.061,16.89,12.009,5.079,24.407,9.617,36.85,13.487,12.584,3.914,25.516,7.239,38.438,9.883a402.062,402.062,0,0,0,39.826,6.078,407.17,407.17,0,0,0,82.027,0,402.074,402.074,0,0,0,39.826-6.078c12.922-2.644,25.854-5.969,38.438-9.883,12.443-3.87,24.841-8.408,36.85-13.487,11.9-5.032,23.694-10.715,35.061-16.89,11.286-6.131,22.413-12.891,33.071-20.091,10.607-7.166,21-14.935,30.879-23.091,9.859-8.136,19.443-16.847,28.485-25.889s17.753-18.626,25.889-28.485c8.156-9.883,15.925-20.272,23.091-30.879,7.2-10.658,13.96-21.785,20.091-33.071,6.175-11.367,11.857-23.163,16.89-35.061,5.079-12.009,9.617-24.407,13.487-36.85,3.914-12.584,7.239-25.516,9.883-38.438a402.077,402.077,0,0,0,6.078-39.826,407.169,407.169,0,0,0,0-82.027,402.094,402.094,0,0,0-6.078-39.826c-2.644-12.922-5.969-25.854-9.883-38.438-3.87-12.443-8.408-24.841-13.487-36.85-5.032-11.9-10.715-23.7-16.89-35.061-6.131-11.286-12.891-22.413-20.091-33.071-7.166-10.607-14.935-21-23.091-30.879-8.136-9.859-16.847-19.443-25.889-28.485s-18.626-17.753-28.485-25.889c-9.883-8.156-20.272-15.925-30.879-23.091-10.658-7.2-21.785-13.96-33.071-20.091-11.367-6.175-23.163-11.858-35.061-16.89-12.009-5.079-24.407-9.617-36.85-13.487-12.584-3.914-25.516-7.239-38.438-9.883A402.105,402.105,0,0,0,444.368,4.32a407.585,407.585,0,0,0-41.013-2.071m0-2.249C626.121,0,806.708,180.588,806.708,403.354S626.121,806.708,403.354,806.708,0,626.121,0,403.354,180.588,0,403.354,0Z" transform="translate(165.69 165.69)" fill="url(#linear-gradient)"/>
        <path id="Ellipse_18" data-name="Ellipse 18" d="M429.6,2.249a434.145,434.145,0,0,0-43.686,2.2,428.442,428.442,0,0,0-42.445,6.477c-13.767,2.817-27.546,6.36-40.953,10.53-13.257,4.123-26.466,8.958-39.261,14.37-12.677,5.362-25.245,11.416-37.355,18-12.025,6.532-23.879,13.734-35.235,21.406-11.3,7.635-22.37,15.912-32.9,24.6-10.5,8.669-20.715,17.949-30.348,27.583S108.5,147.26,99.833,157.764c-8.69,10.53-16.967,21.6-24.6,32.9-7.672,11.355-14.874,23.21-21.406,35.235-6.579,12.11-12.633,24.679-18,37.355-5.412,12.8-10.246,26-14.37,39.261-4.17,13.407-7.713,27.186-10.53,40.953A428.425,428.425,0,0,0,4.456,385.9a433.785,433.785,0,0,0,0,87.393,428.44,428.44,0,0,0,6.476,42.431c2.817,13.767,6.36,27.546,10.53,40.953,4.123,13.257,8.958,26.466,14.37,39.261,5.362,12.677,11.416,25.245,18,37.355,6.532,12.025,13.734,23.879,21.406,35.235,7.635,11.3,15.912,22.37,24.6,32.9,8.669,10.5,17.949,20.715,27.583,30.348s19.844,18.914,30.348,27.583c10.53,8.69,21.6,16.967,32.9,24.6,11.355,7.672,23.21,14.873,35.235,21.406,12.11,6.579,24.679,12.633,37.355,18,12.8,5.412,26,10.246,39.261,14.37,13.407,4.17,27.186,7.713,40.953,10.53a428.462,428.462,0,0,0,42.431,6.476,433.8,433.8,0,0,0,87.393,0,428.474,428.474,0,0,0,42.431-6.476c13.767-2.817,27.546-6.36,40.953-10.53,13.257-4.123,26.466-8.958,39.261-14.37,12.677-5.362,25.245-11.416,37.355-18,12.025-6.532,23.879-13.734,35.235-21.406,11.3-7.635,22.37-15.912,32.9-24.6,10.5-8.669,20.715-17.949,30.348-27.583s18.914-19.844,27.583-30.348c8.69-10.53,16.967-21.6,24.6-32.9,7.672-11.355,14.873-23.21,21.406-35.235,6.579-12.11,12.633-24.679,18-37.355,5.412-12.795,10.246-26,14.37-39.261,4.17-13.407,7.713-27.186,10.53-40.953a428.458,428.458,0,0,0,6.476-42.431,433.8,433.8,0,0,0,0-87.393,428.459,428.459,0,0,0-6.476-42.431c-2.817-13.767-6.36-27.546-10.53-40.953-4.123-13.257-8.958-26.466-14.37-39.261-5.362-12.677-11.416-25.245-18-37.355-6.532-12.025-13.734-23.879-21.406-35.235-7.635-11.3-15.912-22.37-24.6-32.9-8.669-10.5-17.949-20.715-27.583-30.348S711.929,108.5,701.425,99.833c-10.53-8.69-21.6-16.967-32.9-24.6-11.355-7.672-23.21-14.874-35.235-21.406-12.11-6.579-24.679-12.633-37.355-18-12.795-5.412-26-10.246-39.261-14.37-13.407-4.17-27.186-7.713-40.953-10.53A428.428,428.428,0,0,0,473.29,4.451a434.225,434.225,0,0,0-43.7-2.206m0-2.249c237.263,0,429.6,192.34,429.6,429.6s-192.337,429.6-429.6,429.6S0,666.853,0,429.6,192.336,0,429.6,0Z" transform="translate(139.45 139.45)" fill="url(#linear-gradient)"/>
        <path id="Ellipse_19" data-name="Ellipse 19" d="M460.334,2.249a465.344,465.344,0,0,0-46.816,2.363,459.248,459.248,0,0,0-45.506,6.943c-14.758,3.02-29.527,6.817-43.9,11.288-14.211,4.42-28.37,9.6-42.085,15.4-13.588,5.747-27.06,12.237-40.042,19.289-12.89,7-25.6,14.722-37.769,22.945-12.113,8.184-23.979,17.056-35.266,26.371-11.259,9.292-22.2,19.24-32.531,29.567s-20.274,21.272-29.567,32.531c-9.315,11.287-18.187,23.152-26.371,35.266-8.223,12.172-15.943,24.88-22.945,37.769-7.052,12.982-13.542,26.454-19.289,40.042-5.8,13.715-10.983,27.875-15.4,42.085-4.47,14.372-8.268,29.141-11.288,43.9a459.24,459.24,0,0,0-6.941,45.483,464.981,464.981,0,0,0,0,93.678,459.255,459.255,0,0,0,6.941,45.483c3.02,14.758,6.817,29.527,11.288,43.9,4.42,14.211,9.6,28.37,15.4,42.085,5.747,13.588,12.237,27.06,19.289,40.042,7,12.89,14.722,25.6,22.945,37.769,8.184,12.113,17.056,23.979,26.371,35.266,9.292,11.259,19.24,22.2,29.567,32.531s21.272,20.274,32.531,29.567c11.287,9.315,23.152,18.187,35.266,26.371,12.172,8.223,24.88,15.943,37.769,22.945,12.982,7.052,26.454,13.542,40.042,19.289,13.715,5.8,27.875,10.983,42.085,15.4,14.372,4.47,29.141,8.268,43.9,11.288a459.237,459.237,0,0,0,45.483,6.941,464.992,464.992,0,0,0,93.678,0,459.292,459.292,0,0,0,45.483-6.941c14.758-3.02,29.527-6.817,43.9-11.288,14.211-4.42,28.37-9.6,42.085-15.4,13.588-5.747,27.06-12.237,40.042-19.289,12.89-7,25.6-14.722,37.769-22.945,12.113-8.184,23.979-17.056,35.266-26.371,11.259-9.292,22.2-19.24,32.531-29.567s20.274-21.272,29.567-32.531c9.315-11.287,18.187-23.152,26.371-35.266,8.223-12.172,15.943-24.88,22.945-37.769,7.052-12.982,13.542-26.454,19.289-40.042,5.8-13.715,10.983-27.875,15.4-42.085,4.47-14.372,8.268-29.141,11.288-43.9a459.254,459.254,0,0,0,6.941-45.483,464.983,464.983,0,0,0,0-93.678,459.252,459.252,0,0,0-6.941-45.483c-3.02-14.758-6.817-29.527-11.288-43.9-4.42-14.211-9.6-28.37-15.4-42.085-5.747-13.588-12.237-27.06-19.289-40.042-7-12.89-14.722-25.6-22.945-37.769C832,192.1,823.129,180.237,813.815,168.95c-9.292-11.259-19.24-22.2-29.567-32.531s-21.272-20.274-32.531-29.567c-11.287-9.315-23.152-18.187-35.266-26.371-12.172-8.223-24.88-15.943-37.769-22.945C665.7,50.484,652.229,43.994,638.64,38.247c-13.715-5.8-27.875-10.983-42.085-15.4-14.372-4.47-29.141-8.268-43.9-11.288a459.247,459.247,0,0,0-45.483-6.941,465.488,465.488,0,0,0-46.839-2.365m0-2.249c254.236,0,460.334,206.1,460.334,460.33s-206.1,460.334-460.334,460.334S0,714.569,0,460.334,206.1,0,460.334,0Z" transform="translate(108.711 108.711)" fill="url(#linear-gradient)"/>
        <path id="Ellipse_20" data-name="Ellipse 20" d="M490.323,2.249a495.811,495.811,0,0,0-49.879,2.517,489.358,489.358,0,0,0-48.487,7.4c-15.724,3.218-31.46,7.264-46.773,12.027-15.141,4.7-30.228,10.227-44.841,16.4-14.478,6.124-28.832,13.038-42.664,20.552-13.733,7.46-27.273,15.686-40.242,24.447-12.907,8.719-25.548,18.173-37.574,28.1-12,9.9-23.658,20.5-34.661,31.5s-21.6,22.664-31.5,34.661c-9.925,12.026-19.378,24.668-28.1,37.574C76.84,230.4,68.615,243.942,61.155,257.676,53.641,271.508,46.726,285.862,40.6,300.34c-6.181,14.613-11.7,29.7-16.412,44.841-4.763,15.313-8.809,31.049-12.027,46.773a489.343,489.343,0,0,0-7.4,48.461,495.415,495.415,0,0,0,0,99.811,489.349,489.349,0,0,0,7.4,48.461c3.218,15.724,7.264,31.46,12.027,46.773C28.9,650.6,34.423,665.689,40.6,680.3c6.124,14.478,13.038,28.832,20.552,42.664,7.46,13.733,15.686,27.273,24.447,40.242,8.719,12.906,18.173,25.548,28.1,37.574,9.9,12,20.5,23.658,31.5,34.661s22.664,21.6,34.661,31.5c12.026,9.925,24.668,19.378,37.574,28.1,12.969,8.762,26.508,16.987,40.242,24.448,13.832,7.514,28.186,14.429,42.664,20.552,14.613,6.181,29.7,11.7,44.841,16.412,15.313,4.763,31.049,8.809,46.773,12.027a489.355,489.355,0,0,0,48.461,7.4,495.4,495.4,0,0,0,99.811,0,489.39,489.39,0,0,0,48.461-7.4c15.724-3.218,31.46-7.264,46.773-12.027,15.141-4.709,30.228-10.231,44.841-16.412,14.478-6.124,28.832-13.038,42.664-20.552,13.733-7.46,27.273-15.686,40.242-24.448,12.906-8.719,25.548-18.173,37.574-28.1,12-9.9,23.658-20.5,34.661-31.5s21.6-22.664,31.5-34.661c9.925-12.026,19.378-24.668,28.1-37.574,8.762-12.969,16.987-26.508,24.448-40.242,7.51-13.83,14.428-28.184,20.552-42.664,6.181-14.613,11.7-29.7,16.412-44.841,4.763-15.312,8.809-31.049,12.027-46.773a489.355,489.355,0,0,0,7.4-48.461,495.394,495.394,0,0,0,0-99.811,489.355,489.355,0,0,0-7.4-48.461c-3.218-15.724-7.264-31.46-12.027-46.773-4.709-15.141-10.231-30.228-16.412-44.841C933.918,285.865,927,271.511,919.49,257.68c-7.46-13.733-15.686-27.273-24.448-40.242-8.719-12.907-18.173-25.548-28.1-37.574-9.9-12-20.5-23.658-31.5-34.661s-22.664-21.6-34.661-31.5c-12.026-9.925-24.668-19.378-37.574-28.1-12.969-8.762-26.508-16.987-40.242-24.447C709.134,53.642,694.78,46.727,680.3,40.6c-14.613-6.181-29.7-11.7-44.841-16.412-15.312-4.763-31.049-8.809-46.773-12.027a489.357,489.357,0,0,0-48.461-7.4,495.931,495.931,0,0,0-49.9-2.52m0-2.249c270.8,0,490.323,219.525,490.323,490.323S761.121,980.646,490.323,980.646,0,761.121,0,490.323,219.525,0,490.323,0Z" transform="translate(78.722 78.722)" fill="url(#linear-gradient)"/>
        <path id="Ellipse_21" data-name="Ellipse 21" d="M514.314,2.249a520.143,520.143,0,0,0-52.33,2.641,513.377,513.377,0,0,0-50.871,7.763c-16.5,3.376-33.007,7.621-49.072,12.618C346.155,30.211,330.327,36,315,42.489c-15.19,6.425-30.25,13.679-44.761,21.562-14.409,7.827-28.613,16.457-42.22,25.649-13.541,9.148-26.8,19.066-39.421,29.478-12.586,10.387-24.821,21.507-36.365,33.05s-22.663,23.778-33.05,36.365c-10.412,12.617-20.33,25.88-29.478,39.421-9.193,13.607-17.822,27.811-25.649,42.22C56.168,284.747,48.914,299.806,42.489,315,36,330.327,30.211,346.155,25.27,362.041c-5,16.065-9.242,32.575-12.618,49.072a513.369,513.369,0,0,0-7.76,50.843,519.775,519.775,0,0,0,0,104.717,513.353,513.353,0,0,0,7.76,50.843c3.376,16.5,7.621,33.007,12.618,49.072C30.211,682.473,36,698.3,42.489,713.632c6.425,15.19,13.679,30.25,21.562,44.761,7.827,14.409,16.457,28.613,25.649,42.22,9.148,13.541,19.066,26.8,29.478,39.421,10.387,12.586,21.507,24.821,33.05,36.365s23.778,22.663,36.365,33.05c12.617,10.412,25.88,20.331,39.421,29.478,13.607,9.193,27.811,17.822,42.22,25.649,14.511,7.883,29.571,15.138,44.761,21.562,15.331,6.485,31.159,12.278,47.045,17.219,16.065,5,32.575,9.242,49.072,12.618a513.388,513.388,0,0,0,50.843,7.76,519.771,519.771,0,0,0,104.717,0,513.4,513.4,0,0,0,50.843-7.76c16.5-3.376,33.007-7.621,49.072-12.618,15.885-4.941,31.714-10.734,47.045-17.219,15.19-6.425,30.25-13.679,44.761-21.562,14.409-7.827,28.613-16.457,42.22-25.649,13.541-9.148,26.8-19.066,39.421-29.478,12.586-10.387,24.821-21.507,36.365-33.05s22.663-23.779,33.05-36.365c10.412-12.617,20.331-25.88,29.478-39.421,9.193-13.607,17.822-27.811,25.649-42.22,7.883-14.511,15.138-29.571,21.562-44.761,6.485-15.331,12.278-31.159,17.219-47.045,5-16.065,9.242-32.575,12.618-49.072a513.389,513.389,0,0,0,7.76-50.843,519.762,519.762,0,0,0,0-104.717,513.4,513.4,0,0,0-7.76-50.843c-3.376-16.5-7.621-33.007-12.618-49.072-4.941-15.885-10.734-31.714-17.219-47.045-6.425-15.19-13.679-30.25-21.562-44.761-7.827-14.409-16.457-28.613-25.649-42.22-9.148-13.541-19.066-26.8-29.478-39.421-10.387-12.586-21.507-24.821-33.05-36.365s-23.779-22.663-36.365-33.05c-12.617-10.412-25.88-20.33-39.421-29.478-13.607-9.193-27.811-17.822-42.22-25.649-14.511-7.883-29.571-15.138-44.761-21.562C698.3,36,682.473,30.211,666.587,25.27c-16.065-5-32.575-9.242-49.072-12.618a513.343,513.343,0,0,0-50.843-7.76,520.286,520.286,0,0,0-52.358-2.644m0-2.249c284.048,0,514.314,230.266,514.314,514.314s-230.266,514.314-514.314,514.314S0,798.362,0,514.314,230.266,0,514.314,0Z" transform="translate(54.73 54.73)" fill="url(#linear-gradient)"/>
        <path id="Ellipse_22" data-name="Ellipse 22" d="M542.8,2.249a549.122,549.122,0,0,0-55.232,2.787,541.938,541.938,0,0,0-53.707,8.194c-17.414,3.563-34.843,8.045-51.8,13.32-16.769,5.216-33.478,11.331-49.662,18.177-16.035,6.782-31.932,14.44-47.251,22.762-15.21,8.263-30.205,17.372-44.569,27.076-14.294,9.657-28.3,20.127-41.614,31.119-13.287,10.965-26.2,22.7-38.388,34.889s-23.924,25.1-34.889,38.388c-10.992,13.319-21.462,27.32-31.119,41.614-9.7,14.363-18.814,29.359-27.076,44.569-8.322,15.319-15.98,31.216-22.762,47.251-6.845,16.184-12.961,32.893-18.177,49.662-5.275,16.959-9.756,34.388-13.32,51.8A541.946,541.946,0,0,0,5.04,487.533a548.7,548.7,0,0,0,0,110.542,541.941,541.941,0,0,0,8.191,53.672c3.563,17.414,8.045,34.843,13.32,51.8,5.216,16.769,11.331,33.478,18.177,49.662,6.782,16.035,14.44,31.933,22.762,47.251,8.263,15.21,17.372,30.205,27.076,44.569,9.657,14.294,20.127,28.3,31.119,41.614,10.965,13.287,22.7,26.2,34.889,38.388s25.1,23.924,38.388,34.889c13.319,10.992,27.32,21.462,41.614,31.119,14.363,9.7,29.359,18.814,44.569,27.076,15.319,8.322,31.216,15.98,47.251,22.762,16.184,6.845,32.893,12.961,49.662,18.177,16.959,5.275,34.388,9.756,51.8,13.32a541.95,541.95,0,0,0,53.672,8.191,548.7,548.7,0,0,0,110.542,0,541.943,541.943,0,0,0,53.672-8.191c17.414-3.564,34.843-8.045,51.8-13.32,16.769-5.216,33.478-11.331,49.662-18.177,16.035-6.782,31.933-14.441,47.251-22.762,15.21-8.263,30.205-17.372,44.569-27.076,14.294-9.657,28.3-20.127,41.614-31.119,13.287-10.965,26.2-22.7,38.388-34.889s23.924-25.1,34.889-38.388c10.992-13.319,21.462-27.32,31.119-41.614,9.7-14.363,18.814-29.359,27.076-44.569,8.322-15.319,15.98-31.216,22.762-47.251,6.845-16.184,12.961-32.893,18.177-49.662,5.275-16.959,9.756-34.388,13.32-51.8a541.982,541.982,0,0,0,8.191-53.672,548.7,548.7,0,0,0,0-110.542,541.946,541.946,0,0,0-8.191-53.672c-3.564-17.414-8.045-34.843-13.32-51.8-5.216-16.769-11.331-33.478-18.177-49.662-6.782-16.035-14.441-31.932-22.762-47.251-8.263-15.21-17.372-30.205-27.076-44.569-9.657-14.294-20.127-28.3-31.119-41.614-10.965-13.287-22.7-26.2-34.889-38.388s-25.1-23.924-38.388-34.889c-13.319-10.992-27.32-21.462-41.614-31.119-14.363-9.7-29.359-18.814-44.569-27.076-15.319-8.322-31.216-15.98-47.251-22.762-16.184-6.845-32.893-12.961-49.662-18.177-16.959-5.275-34.388-9.756-51.8-13.32A541.953,541.953,0,0,0,598.075,5.04,549.283,549.283,0,0,0,542.8,2.249M542.8,0c299.782,0,542.8,243.022,542.8,542.8s-243.021,542.8-542.8,542.8S0,842.586,0,542.8,243.022,0,542.8,0Z" transform="translate(26.241 26.241)" fill="url(#linear-gradient)"/>
        <path id="Ellipse_23" data-name="Ellipse 23" d="M569.044,2.249a575.753,575.753,0,0,0-57.917,2.923,568.271,568.271,0,0,0-56.314,8.593C436.553,17.5,418.278,22.2,400.5,27.731,382.917,33.2,365.4,39.612,348.427,46.79,331.61,53.9,314.94,61.931,298.878,70.657c-15.948,8.664-31.672,18.216-46.732,28.391-14.988,10.126-29.669,21.1-43.635,32.629-13.931,11.5-27.474,23.8-40.251,36.583s-25.086,26.32-36.583,40.251c-11.525,13.966-22.5,28.646-32.629,43.635-10.175,15.061-19.727,30.784-28.391,46.732C61.931,314.94,53.9,331.61,46.79,348.423c-7.178,16.97-13.59,34.49-19.059,52.073C22.2,418.278,17.5,436.553,13.764,454.813A568.239,568.239,0,0,0,5.176,511.09a575.329,575.329,0,0,0,0,115.91,568.268,568.268,0,0,0,8.589,56.277c3.736,18.26,8.435,36.535,13.966,54.317,5.469,17.583,11.881,35.1,19.059,52.073C53.9,806.48,61.931,823.15,70.657,839.212c8.664,15.949,18.216,31.672,28.391,46.732,10.126,14.988,21.1,29.669,32.629,43.634,11.5,13.931,23.8,27.474,36.583,40.251s26.32,25.086,40.251,36.583c13.966,11.525,28.646,22.5,43.635,32.629,15.061,10.175,30.784,19.727,46.732,28.391,16.063,8.726,32.732,16.756,49.545,23.867,16.97,7.178,34.49,13.59,52.073,19.059,17.782,5.531,36.057,10.23,54.317,13.967a568.291,568.291,0,0,0,56.277,8.589,575.357,575.357,0,0,0,115.908,0,568.288,568.288,0,0,0,56.277-8.589c18.26-3.737,36.535-8.436,54.317-13.967,17.583-5.469,35.1-11.881,52.073-19.059,16.813-7.111,33.483-15.141,49.545-23.867,15.949-8.664,31.672-18.216,46.732-28.391,14.988-10.126,29.669-21.1,43.634-32.629,13.931-11.5,27.474-23.8,40.251-36.583s25.086-26.32,36.583-40.251c11.525-13.965,22.5-28.646,32.629-43.634,10.175-15.061,19.727-30.784,28.391-46.732,8.726-16.063,16.756-32.732,23.867-49.545,7.178-16.97,13.59-34.49,19.059-52.073,5.531-17.782,10.23-36.057,13.967-54.317A568.251,568.251,0,0,0,1132.91,627a575.357,575.357,0,0,0,0-115.908,568.325,568.325,0,0,0-8.589-56.277c-3.737-18.26-8.436-36.535-13.967-54.317-5.469-17.583-11.881-35.1-19.059-52.073-7.111-16.813-15.141-33.483-23.867-49.545-8.664-15.948-18.216-31.672-28.391-46.732-10.126-14.988-21.1-29.669-32.629-43.635-11.5-13.931-23.8-27.474-36.583-40.251s-26.32-25.086-40.251-36.583c-13.965-11.525-28.646-22.5-43.634-32.629-15.061-10.175-30.784-19.727-46.732-28.391-16.06-8.728-32.729-16.759-49.542-23.869-16.97-7.178-34.49-13.59-52.073-19.059C719.81,22.2,701.535,17.5,683.276,13.764A568.253,568.253,0,0,0,627,5.176,575.926,575.926,0,0,0,569.046,2.25m0-2.249C883.32,0,1138.09,254.771,1138.09,569.045s-254.77,569.044-569.044,569.044S0,883.319,0,569.044,254.77,0,569.044,0Z" fill="url(#linear-gradient)"/>
        <path id="Ellipse_24" data-name="Ellipse 24" d="M268.4,2.249a270.381,270.381,0,0,0-27.2,1.373A265.751,265.751,0,0,0,3.623,241.188a270.171,270.171,0,0,0,0,54.431A265.751,265.751,0,0,0,241.188,533.182a270.155,270.155,0,0,0,54.431,0A265.751,265.751,0,0,0,533.182,295.618a270.151,270.151,0,0,0,0-54.431A265.751,265.751,0,0,0,295.618,3.623,270.455,270.455,0,0,0,268.4,2.249M268.4,0C416.635,0,536.8,120.168,536.8,268.4S416.632,536.8,268.4,536.8,0,416.638,0,268.4,120.168,0,268.4,0Z" transform="translate(300.641 300.641)" fill="url(#linear-gradient)"/>
        <path id="Ellipse_25" data-name="Ellipse 25" d="M236.165,2.249A235.659,235.659,0,0,0,189.02,7,233.844,233.844,0,0,0,7,189.02a236.22,236.22,0,0,0,0,94.289,233.836,233.836,0,0,0,182.02,182.02,236.22,236.22,0,0,0,94.289,0,233.835,233.835,0,0,0,182.02-182.02,236.219,236.219,0,0,0,0-94.289A233.844,233.844,0,0,0,283.309,7a235.656,235.656,0,0,0-47.145-4.752m0-2.249c130.43,0,236.165,105.735,236.165,236.165S366.6,472.329,236.165,472.329,0,366.6,0,236.165,105.735,0,236.165,0Z" transform="translate(332.88 332.88)" fill="url(#linear-gradient)"/>
        <path id="Ellipse_26" data-name="Ellipse 26" d="M203.177,2.249a202.423,202.423,0,0,0-40.5,4.082A200.844,200.844,0,0,0,6.331,162.68a202.907,202.907,0,0,0,0,80.992,200.849,200.849,0,0,0,156.345,156.35,202.905,202.905,0,0,0,80.992,0,200.85,200.85,0,0,0,156.35-156.345,202.906,202.906,0,0,0,0-80.992A200.834,200.834,0,0,0,243.673,6.331a202.42,202.42,0,0,0-40.5-4.082m0-2.249c112.215,0,203.18,90.965,203.18,203.177S315.388,406.353,203.177,406.353,0,315.388,0,203.177,90.965,0,203.177,0Z" transform="translate(365.868 365.868)" fill="url(#linear-gradient)"/>
        <path id="Ellipse_27" data-name="Ellipse 27" d="M168.689,2.249A167.681,167.681,0,0,0,135.143,5.63,166.406,166.406,0,0,0,5.632,135.143a168.085,168.085,0,0,0,0,67.092A166.406,166.406,0,0,0,135.145,331.746a168.084,168.084,0,0,0,67.092,0A166.412,166.412,0,0,0,331.746,202.23a168.085,168.085,0,0,0,0-67.092A166.414,166.414,0,0,0,202.23,5.632a167.68,167.68,0,0,0-33.546-3.381m0-2.249A168.689,168.689,0,1,1,0,168.689,168.69,168.69,0,0,1,168.684,0Z" transform="translate(400.355 400.355)" fill="url(#linear-gradient)"/>
        <path id="Ellipse_28" data-name="Ellipse 28" d="M135.7,2.249A134.448,134.448,0,0,0,108.8,4.96,133.418,133.418,0,0,0,4.96,108.8a134.775,134.775,0,0,0,0,53.8A133.4,133.4,0,0,0,108.8,266.443a134.775,134.775,0,0,0,53.8,0A133.4,133.4,0,0,0,266.446,162.6a134.776,134.776,0,0,0,0-53.8A133.375,133.375,0,0,0,162.6,4.96a134.449,134.449,0,0,0-26.9-2.711M135.7,0A135.7,135.7,0,1,1,0,135.7,135.7,135.7,0,0,1,135.7,0Z" transform="translate(433.343 433.343)" fill="url(#linear-gradient)"/>
      </g>
    </g>
  </g>
</svg>
