<svg xmlns="http://www.w3.org/2000/svg" width="904.67" height="456.768" viewBox="0 0 904.67 456.768">
  <g id="Group_834" data-name="Group 834" transform="translate(-539.748 -438.335)">
    <path id="Path_2081" data-name="Path 2081" d="M616.861,445.881a.115.115,0,0,0-.118-.118,49.893,49.893,0,0,0-26.294-7.429,50.671,50.671,0,0,0-50.229,44.1,38.973,38.973,0,0,0-.472,6.485v50.7h50.7a50.592,50.592,0,0,0,26.412-93.738Zm-5.9,63.671a29.064,29.064,0,0,1-49.64-20.634,30.5,30.5,0,0,1,.825-6.485,27.615,27.615,0,0,1,7.664-14.031,29.14,29.14,0,0,1,39.028-1.887c.708.589,1.416,1.179,2.123,1.887A29.178,29.178,0,0,1,610.966,509.552Z" transform="translate(-0.001 0)" fill="rgba(17,15,42,0.08)"/>
    <path id="Path_2082" data-name="Path 2082" d="M633.486,525.5a.115.115,0,0,0,.118-.118,49.893,49.893,0,0,0,7.428-26.294,50.672,50.672,0,0,0-44.086-50.229,39.27,39.27,0,0,0-6.5-.472h-50.7v50.7A50.592,50.592,0,0,0,633.486,525.5Zm-63.671-5.9a29.065,29.065,0,0,1,20.634-49.64,30.731,30.731,0,0,1,6.5.826,27.626,27.626,0,0,1,14.02,7.664,29.141,29.141,0,0,1,1.886,39.028,27.683,27.683,0,0,1-1.886,2.122A29.177,29.177,0,0,1,569.815,519.6Z" transform="translate(-0.001 108.449)" fill="rgba(17,15,42,0.08)"/>
    <path id="Path_2083" data-name="Path 2083" d="M557.029,462.507a.115.115,0,0,0-.118.118,49.884,49.884,0,0,0-7.428,26.294,50.672,50.672,0,0,0,44.1,50.229,39.034,39.034,0,0,0,6.485.472h50.7v-50.7a50.592,50.592,0,0,0-93.738-26.412Zm63.67,5.9a29.065,29.065,0,0,1-20.634,49.64,30.535,30.535,0,0,1-6.485-.826,27.615,27.615,0,0,1-14.031-7.664,29.141,29.141,0,0,1-1.886-39.028c.589-.708,1.179-1.415,1.886-2.122A29.177,29.177,0,0,1,620.7,468.4Z" transform="translate(105.038 0)" fill="rgba(17,15,42,0.08)"/>
    <path id="Path_2084" data-name="Path 2084" d="M573.653,542.123a.116.116,0,0,0,.118.118,49.891,49.891,0,0,0,26.293,7.429,50.672,50.672,0,0,0,50.229-44.1,39.026,39.026,0,0,0,.472-6.485v-50.7h-50.7a50.593,50.593,0,0,0-26.412,93.738Zm5.9-63.671a29.065,29.065,0,0,1,49.64,20.634,30.527,30.527,0,0,1-.826,6.485A27.613,27.613,0,0,1,620.7,519.6a29.14,29.14,0,0,1-39.028,1.887c-.708-.589-1.415-1.179-2.123-1.887A29.178,29.178,0,0,1,579.549,478.452Z" transform="translate(105.038 108.449)" fill="rgba(17,15,42,0.08)"/>
    <path id="Path_2085" data-name="Path 2085" d="M636.329,445.881a.116.116,0,0,0-.118-.118,49.887,49.887,0,0,0-26.293-7.429,50.673,50.673,0,0,0-50.229,44.1,39.079,39.079,0,0,0-.472,6.485v50.7h50.7a50.592,50.592,0,0,0,26.412-93.738Zm-5.9,63.671a29.065,29.065,0,0,1-49.64-20.634,30.5,30.5,0,0,1,.826-6.485,27.612,27.612,0,0,1,7.664-14.031,29.14,29.14,0,0,1,39.028-1.887c.708.589,1.415,1.179,2.123,1.887A29.177,29.177,0,0,1,630.433,509.552Z" transform="translate(210.078 0)" fill="rgba(17,15,42,0.08)"/>
    <path id="Path_2086" data-name="Path 2086" d="M652.954,525.5a.115.115,0,0,0,.118-.118,49.889,49.889,0,0,0,7.429-26.294,50.672,50.672,0,0,0-44.1-50.229,39.034,39.034,0,0,0-6.485-.472h-50.7v50.7A50.593,50.593,0,0,0,652.954,525.5Zm-63.671-5.9a29.065,29.065,0,0,1,20.634-49.64,30.535,30.535,0,0,1,6.485.826,27.613,27.613,0,0,1,14.031,7.664,29.141,29.141,0,0,1,1.887,39.028c-.589.708-1.18,1.415-1.887,2.122A29.177,29.177,0,0,1,589.283,519.6Z" transform="translate(210.078 108.449)" fill="rgba(17,15,42,0.08)"/>
    <path id="Path_2087" data-name="Path 2087" d="M576.5,462.507a.115.115,0,0,0-.118.118,49.885,49.885,0,0,0-7.429,26.294,50.672,50.672,0,0,0,44.1,50.229,39.03,39.03,0,0,0,6.485.472h50.7v-50.7A50.592,50.592,0,0,0,576.5,462.507Zm63.67,5.9a29.065,29.065,0,0,1-20.634,49.64,30.527,30.527,0,0,1-6.485-.826,27.615,27.615,0,0,1-14.031-7.664,29.139,29.139,0,0,1-1.886-39.028c.589-.708,1.179-1.415,1.886-2.122A29.176,29.176,0,0,1,640.167,468.4Z" transform="translate(315.116 0)" fill="rgba(17,15,42,0.08)"/>
    <path id="Path_2088" data-name="Path 2088" d="M593.122,542.123a.116.116,0,0,0,.118.118,49.886,49.886,0,0,0,26.293,7.429,50.673,50.673,0,0,0,50.229-44.1,39.026,39.026,0,0,0,.471-6.485v-50.7h-50.7a50.592,50.592,0,0,0-26.412,93.738Zm5.9-63.671a29.065,29.065,0,0,1,49.64,20.634,30.527,30.527,0,0,1-.826,6.485,27.613,27.613,0,0,1-7.665,14.031,29.14,29.14,0,0,1-39.028,1.887c-.707-.589-1.415-1.179-2.122-1.887A29.176,29.176,0,0,1,599.017,478.452Z" transform="translate(315.116 108.449)" fill="rgba(17,15,42,0.08)"/>
    <path id="Path_2089" data-name="Path 2089" d="M655.8,445.881a.116.116,0,0,0-.118-.118,49.892,49.892,0,0,0-26.294-7.429,50.672,50.672,0,0,0-50.229,44.1,39.026,39.026,0,0,0-.472,6.485v50.7h50.7A50.593,50.593,0,0,0,655.8,445.881Zm-5.9,63.671a29.065,29.065,0,0,1-49.64-20.634,30.527,30.527,0,0,1,.826-6.485A27.608,27.608,0,0,1,608.75,468.4a29.141,29.141,0,0,1,39.028-1.887c.708.589,1.415,1.179,2.123,1.887A29.178,29.178,0,0,1,649.9,509.552Z" transform="translate(420.144 0)" fill="rgba(17,15,42,0.08)"/>
    <path id="Path_2090" data-name="Path 2090" d="M672.421,525.5a.115.115,0,0,0,.118-.118,49.884,49.884,0,0,0,7.428-26.294,50.672,50.672,0,0,0-44.1-50.229,39.042,39.042,0,0,0-6.486-.472h-50.7v50.7A50.592,50.592,0,0,0,672.421,525.5Zm-63.671-5.9a29.065,29.065,0,0,1,20.634-49.64,30.536,30.536,0,0,1,6.486.826,27.615,27.615,0,0,1,14.031,7.664,29.141,29.141,0,0,1,1.886,39.028c-.589.708-1.179,1.415-1.886,2.122A29.177,29.177,0,0,1,608.75,519.6Z" transform="translate(420.144 108.449)" fill="rgba(17,15,42,0.08)"/>
    <path id="Path_2091" data-name="Path 2091" d="M595.963,462.507a.115.115,0,0,0-.118.118,49.889,49.889,0,0,0-7.428,26.294,50.672,50.672,0,0,0,44.1,50.229,39.034,39.034,0,0,0,6.485.472h50.7v-50.7a50.592,50.592,0,0,0-93.738-26.412Zm63.67,5.9A29.065,29.065,0,0,1,639,518.042a30.527,30.527,0,0,1-6.485-.826,27.611,27.611,0,0,1-14.031-7.664,29.141,29.141,0,0,1-1.886-39.028c.589-.708,1.179-1.415,1.886-2.122A29.176,29.176,0,0,1,659.634,468.4Z" transform="translate(525.183 0)" fill="rgba(17,15,42,0.08)"/>
    <path id="Path_2092" data-name="Path 2092" d="M612.588,542.123a.115.115,0,0,0,.118.118A49.893,49.893,0,0,0,639,549.669a50.672,50.672,0,0,0,50.229-44.1,38.973,38.973,0,0,0,.472-6.485v-50.7H639a50.592,50.592,0,0,0-26.412,93.738Zm5.9-63.671a29.065,29.065,0,0,1,49.64,20.634,30.557,30.557,0,0,1-.825,6.485,27.61,27.61,0,0,1-7.665,14.031,29.14,29.14,0,0,1-39.028,1.887c-.708-.589-1.415-1.179-2.122-1.887A29.178,29.178,0,0,1,618.484,478.452Z" transform="translate(525.183 108.449)" fill="rgba(17,15,42,0.08)"/>
    <path id="Path_2093" data-name="Path 2093" d="M675.264,445.881a.115.115,0,0,0-.117-.118,49.893,49.893,0,0,0-26.294-7.429,50.673,50.673,0,0,0-50.229,44.1,39.131,39.131,0,0,0-.471,6.485v50.7h50.7a50.592,50.592,0,0,0,26.412-93.738Zm-5.9,63.671a29.064,29.064,0,0,1-49.639-20.634,30.5,30.5,0,0,1,.825-6.485,27.615,27.615,0,0,1,7.664-14.031,29.141,29.141,0,0,1,39.028-1.887c.707.589,1.415,1.179,2.122,1.887A29.177,29.177,0,0,1,669.368,509.552Z" transform="translate(630.222 0)" fill="rgba(17,15,42,0.08)"/>
    <path id="Path_2094" data-name="Path 2094" d="M691.889,525.5a.115.115,0,0,0,.118-.118,49.893,49.893,0,0,0,7.428-26.294,50.672,50.672,0,0,0-44.1-50.229,39.03,39.03,0,0,0-6.485-.472h-50.7v50.7A50.592,50.592,0,0,0,691.889,525.5Zm-63.671-5.9a29.065,29.065,0,0,1,20.634-49.64,30.527,30.527,0,0,1,6.485.826,27.611,27.611,0,0,1,14.031,7.664,29.141,29.141,0,0,1,1.887,39.028c-.59.708-1.18,1.415-1.887,2.122A29.177,29.177,0,0,1,628.218,519.6Z" transform="translate(630.222 108.449)" fill="rgba(17,15,42,0.08)"/>
    <path id="Path_2095" data-name="Path 2095" d="M615.431,462.507a.115.115,0,0,0-.118.118,49.893,49.893,0,0,0-7.428,26.294,50.672,50.672,0,0,0,44.1,50.229,39.03,39.03,0,0,0,6.485.472h50.7v-50.7a50.592,50.592,0,0,0-93.738-26.412Zm63.671,5.9a29.065,29.065,0,0,1-20.634,49.64,30.527,30.527,0,0,1-6.485-.826,27.611,27.611,0,0,1-14.031-7.664,29.14,29.14,0,0,1-1.887-39.028c.589-.708,1.18-1.415,1.887-2.122A29.176,29.176,0,0,1,679.1,468.4Z" transform="translate(735.249 0)" fill="rgba(17,15,42,0.08)"/>
    <path id="Path_2096" data-name="Path 2096" d="M632.056,542.123a.115.115,0,0,0,.117.118,49.892,49.892,0,0,0,26.294,7.429,50.673,50.673,0,0,0,50.229-44.1,39.131,39.131,0,0,0,.471-6.485v-50.7h-50.7a50.592,50.592,0,0,0-26.412,93.738Zm5.9-63.671a29.064,29.064,0,0,1,49.639,20.634,30.526,30.526,0,0,1-.825,6.485A27.613,27.613,0,0,1,679.1,519.6a29.14,29.14,0,0,1-39.028,1.887c-.708-.589-1.415-1.179-2.122-1.887A29.176,29.176,0,0,1,637.952,478.452Z" transform="translate(735.249 108.449)" fill="rgba(17,15,42,0.08)"/>
    <path id="Path_2097" data-name="Path 2097" d="M616.861,465.98a.115.115,0,0,0-.118-.118,49.893,49.893,0,0,0-26.294-7.428,50.671,50.671,0,0,0-50.229,44.1,38.981,38.981,0,0,0-.472,6.485v50.7h50.7a50.592,50.592,0,0,0,26.412-93.737Zm-5.9,63.671a29.064,29.064,0,0,1-49.64-20.634,30.5,30.5,0,0,1,.825-6.485,27.615,27.615,0,0,1,7.664-14.031,29.141,29.141,0,0,1,39.028-1.887c.708.59,1.416,1.179,2.123,1.887A29.179,29.179,0,0,1,610.966,529.651Z" transform="translate(-0.001 216.887)" fill="rgba(17,15,42,0.08)"/>
    <path id="Path_2098" data-name="Path 2098" d="M633.486,545.6a.115.115,0,0,0,.118-.118,49.894,49.894,0,0,0,7.428-26.294,50.673,50.673,0,0,0-44.086-50.229,39.323,39.323,0,0,0-6.5-.471h-50.7v50.7A50.592,50.592,0,0,0,633.486,545.6Zm-63.671-5.9a29.065,29.065,0,0,1,20.634-49.64,30.73,30.73,0,0,1,6.5.825,27.629,27.629,0,0,1,14.02,7.664,29.141,29.141,0,0,1,1.886,39.028,27.687,27.687,0,0,1-1.886,2.123A29.178,29.178,0,0,1,569.815,539.7Z" transform="translate(-0.001 325.335)" fill="rgba(17,15,42,0.08)"/>
    <path id="Path_2099" data-name="Path 2099" d="M557.029,482.605a.115.115,0,0,0-.118.118,49.887,49.887,0,0,0-7.428,26.294,50.673,50.673,0,0,0,44.1,50.229,39.087,39.087,0,0,0,6.485.471h50.7v-50.7a50.592,50.592,0,0,0-93.738-26.412Zm63.67,5.9a29.065,29.065,0,0,1-20.634,49.64,30.534,30.534,0,0,1-6.485-.825,27.618,27.618,0,0,1-14.031-7.664,29.141,29.141,0,0,1-1.886-39.028c.589-.708,1.179-1.415,1.886-2.123A29.178,29.178,0,0,1,620.7,488.5Z" transform="translate(105.038 216.887)" fill="rgba(17,15,42,0.08)"/>
    <path id="Path_2100" data-name="Path 2100" d="M573.653,562.222a.116.116,0,0,0,.118.118,49.891,49.891,0,0,0,26.293,7.428,50.672,50.672,0,0,0,50.229-44.1,39.043,39.043,0,0,0,.472-6.485v-50.7h-50.7a50.592,50.592,0,0,0-26.412,93.737Zm5.9-63.671a29.065,29.065,0,0,1,49.64,20.634,30.543,30.543,0,0,1-.826,6.485A27.613,27.613,0,0,1,620.7,539.7a29.141,29.141,0,0,1-39.028,1.887c-.708-.59-1.415-1.179-2.123-1.887A29.179,29.179,0,0,1,579.549,498.551Z" transform="translate(105.038 325.335)" fill="rgba(17,15,42,0.08)"/>
    <path id="Path_2101" data-name="Path 2101" d="M636.329,465.98a.116.116,0,0,0-.118-.118,49.887,49.887,0,0,0-26.293-7.428,50.673,50.673,0,0,0-50.229,44.1,39.086,39.086,0,0,0-.472,6.485v50.7h50.7a50.592,50.592,0,0,0,26.412-93.737Zm-5.9,63.671a29.065,29.065,0,0,1-49.64-20.634,30.5,30.5,0,0,1,.826-6.485,27.612,27.612,0,0,1,7.664-14.031,29.141,29.141,0,0,1,39.028-1.887c.708.59,1.415,1.179,2.123,1.887A29.178,29.178,0,0,1,630.433,529.651Z" transform="translate(210.078 216.887)" fill="rgba(17,15,42,0.08)"/>
    <path id="Path_2102" data-name="Path 2102" d="M652.954,545.6a.115.115,0,0,0,.118-.118,49.89,49.89,0,0,0,7.429-26.294,50.673,50.673,0,0,0-44.1-50.229,39.087,39.087,0,0,0-6.485-.471h-50.7v50.7A50.593,50.593,0,0,0,652.954,545.6Zm-63.671-5.9a29.065,29.065,0,0,1,20.634-49.64,30.534,30.534,0,0,1,6.485.825,27.616,27.616,0,0,1,14.031,7.664,29.141,29.141,0,0,1,1.887,39.028c-.589.708-1.18,1.415-1.887,2.123A29.178,29.178,0,0,1,589.283,539.7Z" transform="translate(210.078 325.335)" fill="rgba(17,15,42,0.08)"/>
    <path id="Path_2103" data-name="Path 2103" d="M576.5,482.605a.115.115,0,0,0-.118.118,49.887,49.887,0,0,0-7.429,26.294,50.673,50.673,0,0,0,44.1,50.229,39.083,39.083,0,0,0,6.485.471h50.7v-50.7A50.592,50.592,0,0,0,576.5,482.605Zm63.67,5.9a29.065,29.065,0,0,1-20.634,49.64,30.526,30.526,0,0,1-6.485-.825,27.618,27.618,0,0,1-14.031-7.664,29.139,29.139,0,0,1-1.886-39.028c.589-.708,1.179-1.415,1.886-2.123A29.177,29.177,0,0,1,640.167,488.5Z" transform="translate(315.116 216.887)" fill="rgba(17,15,42,0.08)"/>
    <path id="Path_2104" data-name="Path 2104" d="M593.122,562.222a.116.116,0,0,0,.118.118,49.886,49.886,0,0,0,26.293,7.428,50.673,50.673,0,0,0,50.229-44.1,39.044,39.044,0,0,0,.471-6.485v-50.7h-50.7a50.592,50.592,0,0,0-26.412,93.737Zm5.9-63.671a29.065,29.065,0,0,1,49.64,20.634,30.543,30.543,0,0,1-.826,6.485,27.614,27.614,0,0,1-7.665,14.031,29.141,29.141,0,0,1-39.028,1.887c-.707-.59-1.415-1.179-2.122-1.887A29.177,29.177,0,0,1,599.017,498.551Z" transform="translate(315.116 325.335)" fill="rgba(17,15,42,0.08)"/>
    <path id="Path_2105" data-name="Path 2105" d="M655.8,465.98a.116.116,0,0,0-.118-.118,49.892,49.892,0,0,0-26.294-7.428,50.672,50.672,0,0,0-50.229,44.1,39.033,39.033,0,0,0-.472,6.485v50.7h50.7A50.592,50.592,0,0,0,655.8,465.98Zm-5.9,63.671a29.065,29.065,0,0,1-49.64-20.634,30.535,30.535,0,0,1,.826-6.485A27.608,27.608,0,0,1,608.75,488.5a29.142,29.142,0,0,1,39.028-1.887c.708.59,1.415,1.179,2.123,1.887A29.179,29.179,0,0,1,649.9,529.651Z" transform="translate(420.144 216.887)" fill="rgba(17,15,42,0.08)"/>
    <path id="Path_2106" data-name="Path 2106" d="M672.421,545.6a.115.115,0,0,0,.118-.118,49.885,49.885,0,0,0,7.428-26.294,50.673,50.673,0,0,0-44.1-50.229,39.094,39.094,0,0,0-6.486-.471h-50.7v50.7A50.592,50.592,0,0,0,672.421,545.6Zm-63.671-5.9a29.065,29.065,0,0,1,20.634-49.64,30.535,30.535,0,0,1,6.486.825,27.618,27.618,0,0,1,14.031,7.664,29.141,29.141,0,0,1,1.886,39.028c-.589.708-1.179,1.415-1.886,2.123A29.178,29.178,0,0,1,608.75,539.7Z" transform="translate(420.144 325.335)" fill="rgba(17,15,42,0.08)"/>
    <path id="Path_2107" data-name="Path 2107" d="M595.963,482.605a.115.115,0,0,0-.118.118,49.891,49.891,0,0,0-7.428,26.294,50.673,50.673,0,0,0,44.1,50.229,39.087,39.087,0,0,0,6.485.471h50.7v-50.7a50.592,50.592,0,0,0-93.738-26.412Zm63.67,5.9A29.065,29.065,0,0,1,639,538.141a30.526,30.526,0,0,1-6.485-.825,27.614,27.614,0,0,1-14.031-7.664,29.141,29.141,0,0,1-1.886-39.028c.589-.708,1.179-1.415,1.886-2.123A29.177,29.177,0,0,1,659.634,488.5Z" transform="translate(525.183 216.887)" fill="rgba(17,15,42,0.08)"/>
    <path id="Path_2108" data-name="Path 2108" d="M612.588,562.222a.115.115,0,0,0,.118.118A49.892,49.892,0,0,0,639,569.768a50.672,50.672,0,0,0,50.229-44.1,38.991,38.991,0,0,0,.472-6.485v-50.7H639a50.592,50.592,0,0,0-26.412,93.737Zm5.9-63.671a29.065,29.065,0,0,1,49.64,20.634,30.574,30.574,0,0,1-.825,6.485,27.61,27.61,0,0,1-7.665,14.031,29.141,29.141,0,0,1-39.028,1.887c-.708-.59-1.415-1.179-2.122-1.887A29.179,29.179,0,0,1,618.484,498.551Z" transform="translate(525.183 325.335)" fill="rgba(17,15,42,0.08)"/>
    <path id="Path_2109" data-name="Path 2109" d="M675.264,465.98a.115.115,0,0,0-.117-.118,49.893,49.893,0,0,0-26.294-7.428,50.673,50.673,0,0,0-50.229,44.1,39.139,39.139,0,0,0-.471,6.485v50.7h50.7a50.592,50.592,0,0,0,26.412-93.737Zm-5.9,63.671a29.064,29.064,0,0,1-49.639-20.634,30.5,30.5,0,0,1,.825-6.485,27.615,27.615,0,0,1,7.664-14.031,29.142,29.142,0,0,1,39.028-1.887c.707.59,1.415,1.179,2.122,1.887A29.178,29.178,0,0,1,669.368,529.651Z" transform="translate(630.222 216.887)" fill="rgba(17,15,42,0.08)"/>
    <path id="Path_2110" data-name="Path 2110" d="M691.889,545.6a.115.115,0,0,0,.118-.118,49.894,49.894,0,0,0,7.428-26.294,50.673,50.673,0,0,0-44.1-50.229,39.083,39.083,0,0,0-6.485-.471h-50.7v50.7A50.592,50.592,0,0,0,691.889,545.6Zm-63.671-5.9a29.065,29.065,0,0,1,20.634-49.64,30.526,30.526,0,0,1,6.485.825,27.614,27.614,0,0,1,14.031,7.664,29.141,29.141,0,0,1,1.887,39.028c-.59.708-1.18,1.415-1.887,2.123A29.178,29.178,0,0,1,628.218,539.7Z" transform="translate(630.222 325.335)" fill="rgba(17,15,42,0.08)"/>
    <path id="Path_2111" data-name="Path 2111" d="M615.431,482.605a.115.115,0,0,0-.118.118,49.9,49.9,0,0,0-7.428,26.294,50.673,50.673,0,0,0,44.1,50.229,39.083,39.083,0,0,0,6.485.471h50.7v-50.7a50.592,50.592,0,0,0-93.738-26.412Zm63.671,5.9a29.065,29.065,0,0,1-20.634,49.64,30.526,30.526,0,0,1-6.485-.825,27.614,27.614,0,0,1-14.031-7.664,29.141,29.141,0,0,1-1.887-39.028c.589-.708,1.18-1.415,1.887-2.123A29.177,29.177,0,0,1,679.1,488.5Z" transform="translate(735.249 216.887)" fill="rgba(17,15,42,0.08)"/>
    <path id="Path_2112" data-name="Path 2112" d="M632.056,562.222a.115.115,0,0,0,.117.118,49.892,49.892,0,0,0,26.294,7.428,50.673,50.673,0,0,0,50.229-44.1,39.149,39.149,0,0,0,.471-6.485v-50.7h-50.7a50.592,50.592,0,0,0-26.412,93.737Zm5.9-63.671a29.064,29.064,0,0,1,49.639,20.634,30.542,30.542,0,0,1-.825,6.485A27.613,27.613,0,0,1,679.1,539.7a29.141,29.141,0,0,1-39.028,1.887c-.708-.59-1.415-1.179-2.122-1.887A29.177,29.177,0,0,1,637.952,498.551Z" transform="translate(735.249 325.335)" fill="rgba(17,15,42,0.08)"/>
  </g>
</svg>
