<svg id="login-logo" xmlns="http://www.w3.org/2000/svg" width="192" height="43" viewBox="0 0 192 43">
  <path id="Path_158" data-name="Path 158" d="M597.7,347.123c0-.04-.032-.04-.032-.04a15.841,15.841,0,0,0-8.347-2.35,16.068,16.068,0,0,0-15.934,13.983,12.53,12.53,0,0,0-.152,2.063V333.62h11.936C592.06,333.62,597.672,339.64,597.7,347.123Z" transform="translate(-573.24 -333.62)" fill="#fff"/>
  <path id="Path_159" data-name="Path 159" d="M597.7,349.91c0-.04-.032-.04-.032-.04a15.841,15.841,0,0,0-8.347-2.351A16.068,16.068,0,0,0,573.392,361.5a12.531,12.531,0,0,0-.152,2.063v16.086h16.086A16.052,16.052,0,0,0,597.7,349.91Zm-1.871,20.2a9.218,9.218,0,0,1-15.742-6.548,10.188,10.188,0,0,1,.256-2.063,8.777,8.777,0,0,1,2.439-4.445,9.241,9.241,0,0,1,12.376-.6c.224.184.448.376.672.6A9.245,9.245,0,0,1,595.833,370.113Z" transform="translate(-573.24 -336.651)" fill="#fff"/>
  <path id="Path_1727" data-name="Path 1727" d="M13.626-8.174h-3.1L6.905-.547,3.281-8.174H.128l5.229,10.4H8.415Zm3.1,5.871h9.968a2.026,2.026,0,0,0,.076-.68c0-3.681-2.53-5.607-6.305-5.607-4.1,0-6.551,2.152-6.551,5.626,0,3.455,2.473,5.607,6.758,5.607a8.223,8.223,0,0,0,5.72-1.85L24.82-.925a5.818,5.818,0,0,1-4,1.34C18.4.415,16.986-.434,16.722-2.3Zm3.757-4.059c1.85,0,3.039.661,3.492,2.152l-7.117.038C17.269-5.645,18.572-6.362,20.479-6.362ZM31.73,2.228V-4.021A4.054,4.054,0,0,1,35.411-6.23a2.359,2.359,0,0,1,2.643,2.624V2.228H40.98V-3.794c0-2.775-1.6-4.757-4.719-4.757A5.167,5.167,0,0,0,31.73-6.343V-8.174H28.8v10.4ZM52.8-8.174v6.249A4.054,4.054,0,0,1,49.116.283a2.359,2.359,0,0,1-2.643-2.624V-8.174H43.547v6.022c0,2.775,1.6,4.757,4.72,4.757A5.167,5.167,0,0,0,52.8.4V2.228h2.926v-10.4ZM60.689-2.3h9.968a2.026,2.026,0,0,0,.076-.68c0-3.681-2.53-5.607-6.305-5.607-4.1,0-6.551,2.152-6.551,5.626,0,3.455,2.473,5.607,6.758,5.607a8.223,8.223,0,0,0,5.72-1.85L68.787-.925a5.818,5.818,0,0,1-4,1.34C62.369.415,60.953-.434,60.689-2.3Zm3.757-4.059c1.85,0,3.039.661,3.492,2.152l-7.117.038C61.236-5.645,62.539-6.362,64.445-6.362Zm15.782-2.19A5.481,5.481,0,0,0,75.7-6.475v-5.267H72.771V2.228H75.7V.547a5.481,5.481,0,0,0,4.531,2.077,5.3,5.3,0,0,0,5.607-5.588A5.3,5.3,0,0,0,80.227-8.552ZM79.491.189a4.514,4.514,0,0,1-3.776-1.7V-4.417a4.514,4.514,0,0,1,3.776-1.7c2.265,0,3.549,1.114,3.549,3.153S81.757.189,79.491.189ZM93.952,2.643c4.1,0,6.645-2.152,6.645-5.607,0-3.474-2.549-5.607-6.645-5.607-4.115,0-6.645,2.133-6.645,5.607C87.307.491,89.836,2.643,93.952,2.643Zm0-2.379c-2.19,0-3.813-1.076-3.813-3.228,0-2.171,1.624-3.228,3.813-3.228,2.209,0,3.832,1.057,3.832,3.228C97.784-.812,96.161.264,93.952.264Zm14.763,2.379c4.1,0,6.645-2.152,6.645-5.607,0-3.474-2.549-5.607-6.645-5.607-4.115,0-6.645,2.133-6.645,5.607C102.069.491,104.6,2.643,108.714,2.643Zm0-2.379c-2.19,0-3.813-1.076-3.813-3.228,0-2.171,1.624-3.228,3.813-3.228,2.209,0,3.832,1.057,3.832,3.228C112.547-.812,110.923.264,108.714.264Zm17.84,1.963h3.228L124.931-4.04,129.5-8.174h-3.455l-5.607,5.059v-8.627h-2.926V2.228h2.926V-.359l2.454-2.077Zm5.777.227A1.62,1.62,0,0,0,134.105.887a1.8,1.8,0,0,0-3.568,0A1.627,1.627,0,0,0,132.331,2.454ZM137.919-9.42a1.562,1.562,0,0,0,1.737-1.472,1.553,1.553,0,0,0-1.737-1.491,1.577,1.577,0,0,0-1.775,1.491A1.586,1.586,0,0,0,137.919-9.42Zm1.491,1.246h-2.926v10.4h2.926Zm5.72,10.4V-4.021a4.054,4.054,0,0,1,3.681-2.209,2.359,2.359,0,0,1,2.643,2.624V2.228h2.926V-3.794c0-2.775-1.6-4.757-4.72-4.757a5.167,5.167,0,0,0-4.531,2.209V-8.174H142.2v10.4Z" transform="translate(37.62 23.401)" fill="#fff"/>
  <path id="Path_1728" data-name="Path 1728" d="M2.006,1.86V-6.153H1.044V1.86ZM8.347.829a2.563,2.563,0,0,1-1.316.424C6.344,1.253,5.76.91,5.76.143v-3.7H8.633v-.824H5.76V-5.833H4.821v1.454H3.562v.824H4.821V.28A1.817,1.817,0,0,0,6.87,2.089,3.156,3.156,0,0,0,8.679,1.5Zm2.038-7.212a.639.639,0,0,0-.675.63.626.626,0,0,0,.641.641.29.29,0,0,0,.183-.046,2.338,2.338,0,0,1-.687,1.271l.309.263a3.063,3.063,0,0,0,.939-2.026A.685.685,0,0,0,10.385-6.382ZM15.8-1.758c-1.362-.1-2.484-.252-2.484-1.03,0-.836,1.294-1.065,2.244-1.053a3.885,3.885,0,0,1,2.576.916l.6-.63A5.179,5.179,0,0,0,15.6-4.619c-1.843,0-3.217.664-3.217,1.889,0,1.282,1.568,1.637,3.217,1.774,1.591.137,2.518.343,2.518,1.122,0,.755-1.019,1.156-2.312,1.156A4.51,4.51,0,0,1,12.743.2l-.6.561A5.415,5.415,0,0,0,15.788,2.1c2.129,0,3.262-.9,3.262-2.026C19.05-1.139,17.676-1.609,15.8-1.758Zm11.573,0c-1.362-.1-2.484-.252-2.484-1.03,0-.836,1.294-1.065,2.244-1.053a3.885,3.885,0,0,1,2.576.916l.6-.63a5.179,5.179,0,0,0-3.125-1.065c-1.843,0-3.217.664-3.217,1.889,0,1.282,1.568,1.637,3.217,1.774C28.769-.819,29.7-.613,29.7.166c0,.755-1.019,1.156-2.312,1.156A4.51,4.51,0,0,1,24.316.2l-.6.561A5.415,5.415,0,0,0,27.361,2.1c2.129,0,3.262-.9,3.262-2.026C30.623-1.139,29.249-1.609,27.372-1.758ZM32.763-5.34a.632.632,0,0,0,.664-.607.625.625,0,0,0-.664-.607.625.625,0,0,0-.664.607A.632.632,0,0,0,32.763-5.34Zm.469.962h-.939V1.86h.939Zm11.481-.229a3.111,3.111,0,0,0-2.93,1.8,2.388,2.388,0,0,0-2.541-1.8,3.08,3.08,0,0,0-2.77,1.522V-4.379h-.939V1.86h.939V-2.078A2.655,2.655,0,0,1,39-3.772c1.4,0,2,.836,2,2.152V1.86h.939l-.011-.767V-1.689c0-.114,0-.24-.011-.355a2.689,2.689,0,0,1,2.553-1.728c1.4,0,2,.836,2,2.152V1.86H47.4V-1.689C47.4-3.314,46.626-4.608,44.714-4.608Zm8.883,6.7a3.158,3.158,0,0,0,3.388-3.354A3.149,3.149,0,0,0,53.6-4.608a3.472,3.472,0,0,0-3.011,1.431v-1.2h-.939V4.149h.939V.658A3.472,3.472,0,0,0,53.6,2.089Zm-.24-5.861a2.353,2.353,0,0,1,2.679,2.507,2.356,2.356,0,0,1-2.679,2.518,2.955,2.955,0,0,1-2.77-1.522V-2.25A2.955,2.955,0,0,1,53.357-3.772Zm6.4,5.632V-6.611h-.939V1.86Zm2.8-7.2a.632.632,0,0,0,.664-.607.625.625,0,0,0-.664-.607.625.625,0,0,0-.664.607A.632.632,0,0,0,62.56-5.34Zm.469.962h-.939V1.86h.939Zm4.819-1.74a2,2,0,0,1,1.271.446l.446-.6a3.062,3.062,0,0,0-1.809-.572,1.87,1.87,0,0,0-2.072,1.946v.515H64.426v.8h1.259V1.86h.939V-3.578h2.862v-.8H66.624v-.664C66.624-5.833,67.162-6.119,67.848-6.119Zm3.468-.435a.625.625,0,0,0-.664.607.632.632,0,0,0,.664.607.632.632,0,0,0,.664-.607A.625.625,0,0,0,71.317-6.554ZM70.847,1.86h.939V-4.379h-.939Zm3.72-2.919h6.41A.78.78,0,0,0,81-1.265c0-2.152-1.419-3.354-3.64-3.354-2.358,0-3.743,1.3-3.743,3.365S75,2.1,77.418,2.1A4.681,4.681,0,0,0,80.783.967L80.165.314a3.537,3.537,0,0,1-2.7.984C75.8,1.3,74.659.52,74.568-1.059Zm2.8-2.759a2.445,2.445,0,0,1,2.679,1.98H74.614A2.5,2.5,0,0,1,77.372-3.818Zm8.276-.79A3.158,3.158,0,0,0,82.26-1.254a3.149,3.149,0,0,0,3.388,3.343A3.472,3.472,0,0,0,88.659.658v1.2H89.6V-6.611h-.939v3.434A3.472,3.472,0,0,0,85.648-4.608Zm.24,5.861A2.353,2.353,0,0,1,83.21-1.254a2.356,2.356,0,0,1,2.679-2.518,2.955,2.955,0,0,1,2.77,1.522v1.98A2.955,2.955,0,0,1,85.889,1.253Z" transform="translate(37.869 38.851)" fill="#fff"/>
  <path id="Union_5" data-name="Union 5" d="M22.894,7.632,26.709,0H31.8L27.981,7.632Zm-7.632,0L19.079,0h5.087L20.35,7.632Zm-7.631,0L11.447,0h5.087L12.719,7.632ZM0,7.632,3.815,0H8.9L5.087,7.632Z" transform="translate(132.067 33.079)" fill="#fff"/>
</svg>
