<svg xmlns="http://www.w3.org/2000/svg" width="20.683" height="25.405" viewBox="0 0 20.683 25.405">
  <path id="apple" d="M17.935,6.052A5.563,5.563,0,0,0,19.281,2a5.64,5.64,0,0,0-3.811,1.931A5.3,5.3,0,0,0,14.2,7.856a4.687,4.687,0,0,0,3.734-1.8Zm3.2,9.45a5.729,5.729,0,0,1,2.744-4.839,5.919,5.919,0,0,0-4.649-2.54c-1.981-.2-3.811,1.156-4.865,1.156s-2.54-1.13-4.192-1.105a6.249,6.249,0,0,0-5.259,3.214c-2.236,3.887-.572,9.666,1.664,12.8C7.6,25.727,8.866,27.467,10.542,27.4s2.223-1.042,4.166-1.042,2.54,1.042,4.192,1,2.82-1.575,3.887-3.112a13.972,13.972,0,0,0,1.753-3.62,5.6,5.6,0,0,1-3.4-5.132Z" transform="translate(-3.856 -2)"/>
</svg>
