<svg id="facebook" xmlns="http://www.w3.org/2000/svg" width="23.324" height="23.324" viewBox="0 0 23.324 23.324">
  <path id="Path_2075" data-name="Path 2075" d="M23.324,11.662A11.662,11.662,0,1,0,9.84,23.183V15.033H6.879V11.662H9.84V9.093c0-2.923,1.741-4.537,4.4-4.537a17.934,17.934,0,0,1,2.611.228v2.87H15.385a1.686,1.686,0,0,0-1.9,1.821v2.188h3.234L16.2,15.033H13.484v8.149A11.665,11.665,0,0,0,23.324,11.662Z" fill="#1877f2"/>
  <path id="Path_2076" data-name="Path 2076" d="M311.323,210.478l.517-3.371h-3.234v-2.188a1.686,1.686,0,0,1,1.9-1.821h1.471v-2.87a17.932,17.932,0,0,0-2.611-.228c-2.664,0-4.4,1.614-4.4,4.537v2.569H302v3.371h2.961v8.149a11.786,11.786,0,0,0,3.644,0v-8.149Z" transform="translate(-295.121 -195.444)" fill="#fff"/>
</svg>
