<svg id="google" xmlns="http://www.w3.org/2000/svg" width="20.37" height="20.786" viewBox="0 0 20.37 20.786">
  <path id="Path_2071" data-name="Path 2071" d="M140.527,108.886a8.906,8.906,0,0,0-.219-2.125H130.55v3.857h5.728a5.079,5.079,0,0,1-2.125,3.372l-.019.129,3.085,2.39.214.021a10.162,10.162,0,0,0,3.095-7.645" transform="translate(-120.157 -98.262)" fill="#4285f4"/>
  <path id="Path_2072" data-name="Path 2072" d="M23.209,164.707a9.906,9.906,0,0,0,6.882-2.517l-3.28-2.541a6.151,6.151,0,0,1-3.6,1.039A6.257,6.257,0,0,1,17.3,156.37l-.122.01-3.208,2.483-.042.117a10.385,10.385,0,0,0,9.284,5.728" transform="translate(-12.816 -143.922)" fill="#34a853"/>
  <path id="Path_2073" data-name="Path 2073" d="M4.48,78.083a6.4,6.4,0,0,1-.346-2.055,6.723,6.723,0,0,1,.335-2.055l-.006-.138L1.215,71.312l-.106.051a10.371,10.371,0,0,0,0,9.33l3.372-2.61" transform="translate(0 -65.635)" fill="#fbbc05"/>
  <path id="Path_2074" data-name="Path 2074" d="M23.209,4.019a5.76,5.76,0,0,1,4.019,1.547L30.161,2.7A9.985,9.985,0,0,0,23.209,0a10.385,10.385,0,0,0-9.284,5.728l3.36,2.61a6.282,6.282,0,0,1,5.924-4.319" transform="translate(-12.816)" fill="#eb4335"/>
</svg>
